Patient4_TMGait_0pt4_01_right_16_GRF.mot
version=1
nRows=65
nColumns=19
inDegrees=no
endheader
time	F1x	F1y	F1z	M1x	M1y	M1z	F2x	F2y	F2z	M2x	M2y	M2z	EC1x	EC1y	EC1z	EC2x	EC2y	EC2z
20.63	19.6694	749.7156	71.4609	-188.6483	-62.4114	722.3274	-3.7113	-4.9123	-7.9179	0.816	6.5564	-6.4855	-0.0592	0.0182	-0.0073	-0.0462	0.0165	0.9585
20.6432	16.7556	744.5498	72.3339	-188.2586	-63.2465	712.5648	-2.574	-3.2363	-5.4959	0.64043	4.5713	-4.2358	-0.0592	0.0182	-0.0073	-0.0462	0.0165	0.9585
20.6564	14.5867	738.7999	72.4473	-187.8367	-63.1734	702.1566	-1.5765	-1.7254	-3.4196	0.50767	2.8692	-2.2342	-0.0592	0.0182	-0.0073	-0.0462	0.0165	0.9585
20.6696	13.2821	733.1304	71.846	-187.5077	-62.2203	691.9582	-0.79271	-0.49313	-1.828	0.42691	1.5644	-0.62709	-0.0592	0.0182	-0.0073	-0.0462	0.0165	0.9585
20.6829	12.7844	728.1943	70.7236	-187.4015	-60.5832	682.6735	-0.23961	0.42858	-0.72883	0.39218	0.6627	0.54839	-0.0592	0.0182	-0.0073	-0.0462	0.0165	0.9585
20.6961	12.9732	724.4755	69.3166	-187.6137	-58.509	674.7622	0.096688	1.05	-0.051272	0.3874	0.1088	1.3075	-0.0592	0.0182	-0.0073	-0.0462	0.0165	0.9585
20.7093	13.7558	722.1714	67.8197	-188.176	-56.1971	668.3578	0.26194	1.4145	0.30026	0.39456	-0.17586	1.7174	-0.0592	0.0182	-0.0073	-0.0462	0.0165	0.9585
20.7225	15.0842	721.162	66.3795	-189.0388	-53.793	663.2664	0.30146	1.5536	0.42159	0.38971	-0.26848	1.8448	-0.0592	0.0182	-0.0073	-0.0462	0.0165	0.9585
20.7357	16.9252	721.0673	65.0866	-190.0811	-51.3903	659.0553	0.24855	1.4584	0.40289	0.33801	-0.23829	1.7053	-0.0592	0.0182	-0.0073	-0.0462	0.0165	0.9585
20.7489	19.2379	721.3609	63.9865	-191.1397	-49.0465	655.1856	0.13626	1.1066	0.31189	0.20273	-0.13769	1.2922	-0.0592	0.0182	-0.0073	-0.0462	0.0165	0.9585
20.7621	21.9499	721.5379	63.0928	-192.0541	-46.7977	651.1736	-0.0022989	0.45043	0.20099	-0.057296	-0.0145	0.56374	-0.0592	0.0182	-0.0073	-0.0462	0.0165	0.9585
20.7754	24.9859	721.2722	62.3949	-192.7105	-44.659	646.7233	-0.15071	-0.58704	0.10885	-0.48647	0.094267	-0.55392	-0.0592	0.0182	-0.0073	-0.0462	0.0165	0.9585
20.7886	28.2778	720.5096	61.8811	-193.0679	-42.6419	641.807	-0.28206	-2.0596	0.062185	-1.1147	0.15554	-2.1232	-0.0592	0.0182	-0.0073	-0.0462	0.0165	0.9585
20.8018	31.7902	719.4918	61.5671	-193.1669	-40.7749	636.6755	-0.35486	-3.9581	0.075806	-1.9417	0.13856	-4.1441	-0.0592	0.0182	-0.0073	-0.0462	0.0165	0.9585
20.815	35.4926	718.6901	61.504	-193.1188	-39.1131	631.8125	-0.33587	-6.168	0.16572	-2.9169	0.0092629	-6.4958	-0.0592	0.0182	-0.0073	-0.0462	0.0165	0.9585
20.8282	39.341	718.6297	61.7642	-193.067	-37.7355	627.7838	-0.17623	-8.397	0.34289	-3.9078	-0.26559	-8.8693	-0.0592	0.0182	-0.0073	-0.0462	0.0165	0.9585
20.8414	43.2639	719.6966	62.4203	-193.144	-36.7298	625.0546	0.18578	-10.0735	0.60506	-4.6595	-0.71106	-10.6539	-0.0592	0.0182	-0.0073	-0.0462	0.0165	0.9585
20.8546	47.1623	721.9724	63.5293	-193.4325	-36.1822	623.8407	0.81609	-10.3067	0.93934	-4.7703	-1.3389	-10.8994	-0.0592	0.0182	-0.0073	-0.0462	0.0165	0.9585
20.8679	50.884	725.0825	65.0854	-193.9285	-36.146	623.9875	1.7654	-7.8125	1.3073	-3.6621	-2.1259	-8.2353	-0.0592	0.0182	-0.0073	-0.0462	0.0165	0.9585
20.8811	54.2014	728.0992	67.0061	-194.5139	-36.6417	624.8835	3.069	-0.8997	1.6368	-0.57549	-3.0028	-0.86541	-0.0592	0.0182	-0.0073	-0.0462	0.0165	0.9585
20.8943	56.7862	729.5765	69.0944	-194.9591	-37.6278	625.4843	4.6847	12.4116	1.8043	5.3807	-3.8154	13.3058	-0.0592	0.0182	-0.0073	-0.0462	0.0165	0.9585
20.9075	58.2058	727.7095	71.0316	-194.9409	-38.9925	624.4196	6.4483	34.1218	1.6306	15.1079	-4.2991	36.3863	-0.0592	0.0182	-0.0073	-0.0462	0.0165	0.9585
20.9207	57.9743	720.4936	72.3653	-194.0394	-40.5241	620.0591	8.0304	65.7634	0.865	29.2968	-4.0405	69.9896	-0.0592	0.0182	-0.0073	-0.0462	0.0165	0.9585
20.9339	55.6396	705.8102	72.5439	-191.6917	-41.9093	610.496	8.7883	107.667	-0.79769	48.0991	-2.4373	114.4411	-0.0592	0.0182	-0.0073	-0.0462	0.0165	0.9585
20.9471	50.8808	681.4688	70.9505	-187.1151	-42.7194	593.4915	7.7779	158.1694	-3.6385	70.769	1.2034	167.9525	-0.0592	0.0182	-0.0073	-0.0462	0.0165	0.9585
20.9604	43.7357	645.6994	67.0889	-179.4626	-42.4607	566.9117	4.6267	213.5216	-7.9425	95.6122	7.3064	226.5258	-0.0592	0.0182	-0.0073	-0.0462	0.0165	0.9585
20.9736	34.8929	598.6923	60.8899	-168.4967	-40.7573	530.2531	-0.24655	269.4314	-13.5665	120.7006	15.4812	285.5312	-0.0592	0.0182	-0.0073	-0.0462	0.0165	0.9585
20.9868	25.3366	543.0304	53.0131	-154.8726	-37.7877	485.2861	-6.0242	323.5428	-20.2649	144.9532	25.0892	342.3514	-0.0592	0.0182	-0.0073	-0.0462	0.0165	0.9585
21	15.8533	482.3933	44.4846	-139.7259	-34.1402	435.0029	-11.7819	375.1859	-27.4553	168.0713	35.118	396.1556	-0.0592	0.0182	-0.0073	-0.0462	0.0165	0.9585
21.0132	6.8215	420.4281	36.3818	-124.2051	-30.6031	382.6063	-16.7654	424.2583	-34.5319	190.0231	44.6038	446.7897	-0.0592	0.0182	-0.0073	-0.0462	0.0165	0.9585
21.0264	-1.5806	360.2889	29.4106	-109.2439	-27.7201	330.9789	-20.5072	470.7603	-40.9431	210.8266	52.785	494.2403	-0.0592	0.0182	-0.0073	-0.0462	0.0165	0.9585
21.0396	-9.2238	304.3479	23.8384	-95.4434	-25.6833	282.3384	-22.8632	514.6792	-46.5329	230.4707	59.4405	538.5411	-0.0592	0.0182	-0.0073	-0.0462	0.0165	0.9585
21.0529	-15.9434	254.1483	19.5462	-83.0847	-24.3437	238.1494	-23.8849	555.8538	-51.3233	248.8651	64.6288	579.578	-0.0592	0.0182	-0.0073	-0.0462	0.0165	0.9585
21.0661	-21.5094	210.3969	16.2426	-72.1839	-23.391	199.1229	-23.8038	593.8459	-55.4889	265.7755	68.6267	616.9992	-0.0592	0.0182	-0.0073	-0.0462	0.0165	0.9585
21.0793	-25.7039	172.9805	13.5542	-62.5569	-22.4575	165.2447	-22.9598	627.9396	-59.1068	280.8425	71.6681	650.1868	-0.0592	0.0182	-0.0073	-0.0462	0.0165	0.9585
21.0925	-28.3921	141.2263	11.1687	-53.933	-21.263	136.0399	-21.7139	657.3794	-62.2473	293.6891	73.9849	678.4904	-0.0592	0.0182	-0.0073	-0.0462	0.0165	0.9585
21.1057	-29.5246	114.2745	8.8779	-46.0608	-19.6373	110.8775	-20.3593	681.6303	-64.8638	304.0437	75.6624	701.4516	-0.0592	0.0182	-0.0073	-0.0462	0.0165	0.9585
21.1189	-29.1416	91.2673	6.5992	-38.7401	-17.5378	89.1176	-19.0966	700.3947	-66.983	311.75	76.8242	718.8113	-0.0592	0.0182	-0.0073	-0.0462	0.0165	0.9585
21.1321	-27.478	71.5132	4.3535	-31.851	-15.0505	70.2479	-18.0898	713.636	-68.6203	316.7809	77.5657	730.5669	-0.0592	0.0182	-0.0073	-0.0462	0.0165	0.9585
21.1454	-24.9729	54.5222	2.2588	-25.3522	-12.3862	53.9164	-17.4598	721.5743	-69.853	319.2458	78.0284	736.9511	-0.0592	0.0182	-0.0073	-0.0462	0.0165	0.9585
21.1586	-22.0085	39.8737	0.42161	-19.2501	-9.7269	39.8111	-17.3262	724.7636	-70.7419	319.4205	78.338	738.5316	-0.0592	0.0182	-0.0073	-0.0462	0.0165	0.9585
21.1718	-18.8365	27.227	-1.066	-13.5943	-7.2267	27.6608	-17.735	724.0886	-71.3581	317.7516	78.6045	736.1927	-0.0592	0.0182	-0.0073	-0.0462	0.0165	0.9585
21.185	-15.6453	16.3911	-2.1474	-8.4752	-5.0098	17.2965	-18.671	720.7353	-71.7313	314.8372	78.875	731.1154	-0.0592	0.0182	-0.0073	-0.0462	0.0165	0.9585
21.1982	-12.5714	7.2686	-2.7819	-3.9922	-3.1806	8.6183	-20.0692	716.0573	-71.8929	311.3568	79.1782	724.642	-0.0592	0.0182	-0.0073	-0.0462	0.0165	0.9585
21.2114	-9.7212	-0.18364	-2.986	-0.23192	-1.7867	1.5742	-21.8018	711.4313	-71.8464	308.0013	79.4901	718.1151	-0.0592	0.0182	-0.0073	-0.0462	0.0165	0.9585
21.2246	-7.1913	-5.9831	-2.8087	2.7497	-0.84286	-3.8672	-23.7243	708.1474	-71.5853	305.4153	79.7538	712.782	-0.0592	0.0182	-0.0073	-0.0462	0.0165	0.9585
21.2379	-5.0664	-10.171	-2.3624	4.9377	-0.29928	-7.7772	-25.6317	707.2449	-71.096	304.1202	79.8689	709.6103	-0.0592	0.0182	-0.0073	-0.0462	0.0165	0.9585
21.2511	-3.4207	-12.8196	-1.769	6.3495	-0.086173	-10.2478	-27.3297	709.3989	-70.3803	304.4559	79.7387	709.2035	-0.0592	0.0182	-0.0073	-0.0462	0.0165	0.9585
21.2643	-2.2645	-13.9975	-1.1478	7.0159	-0.10737	-11.3714	-28.6661	714.8158	-69.446	306.5387	79.2882	711.7044	-0.0592	0.0182	-0.0073	-0.0462	0.0165	0.9585
21.2775	-1.567	-13.7797	-0.56683	6.979	-0.28972	-11.2367	-29.5479	723.1929	-68.3029	310.2423	78.4729	716.7926	-0.0592	0.0182	-0.0073	-0.0462	0.0165	0.9585
21.2907	-1.2408	-12.2468	-0.057712	6.2837	-0.57355	-9.9382	-29.9155	733.6922	-66.9477	315.1876	77.2595	723.6402	-0.0592	0.0182	-0.0073	-0.0462	0.0165	0.9585
21.3039	-1.1773	-9.4808	0.40055	4.9804	-0.93186	-7.5676	-29.7255	745.0508	-65.3659	320.794	75.6122	731.0081	-0.0592	0.0182	-0.0073	-0.0462	0.0165	0.9585
21.3171	-1.2364	-5.6195	0.83169	3.1457	-1.3257	-4.266	-28.9593	755.8398	-63.5659	326.3902	73.5223	737.5144	-0.0592	0.0182	-0.0073	-0.0462	0.0165	0.9585
21.3304	-1.2682	-0.90566	1.2657	0.89926	-1.7148	-0.26561	-27.6079	764.7099	-61.623	331.3266	71.042	741.8725	-0.0592	0.0182	-0.0073	-0.0462	0.0165	0.9585
21.3436	-1.1576	4.3392	1.7143	-1.6024	-2.0528	4.1417	-25.7445	770.7005	-59.6245	335.112	68.2622	743.2143	-0.0592	0.0182	-0.0073	-0.0462	0.0165	0.9585
21.3568	-0.83576	9.7103	2.1779	-4.1667	-2.3049	8.5919	-23.51	773.4161	-57.6355	337.5024	65.2825	741.249	-0.0592	0.0182	-0.0073	-0.0462	0.0165	0.9585
21.37	-0.29986	14.7422	2.6381	-6.5805	-2.4477	12.679	-21.0794	773.0445	-55.7113	338.5069	62.2157	736.2808	-0.0592	0.0182	-0.0073	-0.0462	0.0165	0.9585
21.3832	0.42535	18.9642	3.0735	-8.6373	-2.472	15.9985	-18.637	770.1192	-53.9266	338.2922	59.2052	728.9491	-0.0592	0.0182	-0.0073	-0.0462	0.0165	0.9585
21.3964	1.2889	21.9588	3.459	-10.1571	-2.3804	18.2137	-16.3277	765.2166	-52.3876	337.0584	56.4137	719.9165	-0.0592	0.0182	-0.0073	-0.0462	0.0165	0.9585
21.4096	2.247	23.4162	3.7538	-11.0109	-2.1638	19.0813	-14.2048	758.8277	-51.2038	334.9828	53.9706	709.7355	-0.0592	0.0182	-0.0073	-0.0462	0.0165	0.9585
21.4229	3.2694	23.2058	3.9201	-11.1461	-1.8089	18.5078	-12.2328	751.3008	-50.465	332.2002	51.9539	698.7702	-0.0592	0.0182	-0.0073	-0.0462	0.0165	0.9585
21.4361	4.3502	21.4137	3.9199	-10.5966	-1.2878	16.581	-10.3483	742.8877	-50.2025	328.826	50.3767	687.259	-0.0592	0.0182	-0.0073	-0.0462	0.0165	0.9585
21.4493	5.5027	18.3314	3.7154	-9.4741	-0.5642	13.5578	-8.4458	733.8744	-50.3899	325.0056	49.1869	675.4489	-0.0592	0.0182	-0.0073	-0.0462	0.0165	0.9585
21.4625	6.7446	14.4765	3.262	-7.9627	0.40278	9.9196	-6.4161	724.6776	-50.9647	320.9497	48.2968	663.7005	-0.0592	0.0182	-0.0073	-0.0462	0.0165	0.9585
21.4757	8.109	10.5803	2.5145	-6.3071	1.6605	6.3687	-4.2105	715.8129	-51.8664	316.9182	47.6403	652.4675	-0.0592	0.0182	-0.0073	-0.0462	0.0165	0.9585
